<svg width="80" height="80" viewBox="0 0 80 80" fill="none" xmlns="http://www.w3.org/2000/svg">
<circle cx="40" cy="40" r="20" stroke="#8DD0A4" stroke-width="6" stroke-linecap="round"/>
<circle cx="40" cy="40" r="2" fill="#8DD0A4"/>
<path d="M20.7071 19.2929C20.3166 18.9024 19.6834 18.9024 19.2929 19.2929C18.9024 19.6834 18.9024 20.3166 19.2929 20.7071L20 20L20.7071 19.2929ZM37 38C37.5523 38 38 37.5523 38 37V28C38 27.4477 37.5523 27 37 27C36.4477 27 36 27.4477 36 28V36H28C27.4477 36 27 36.4477 27 37C27 37.5523 27.4477 38 28 38H37ZM20 20L19.2929 20.7071L36.2929 37.7071L37 37L37.7071 36.2929L20.7071 19.2929L20 20Z" fill="#0B4159"/>
<path d="M20.7071 60.7071C20.3166 61.0976 19.6834 61.0976 19.2929 60.7071C18.9024 60.3166 18.9024 59.6834 19.2929 59.2929L20 60L20.7071 60.7071ZM37 42C37.5523 42 38 42.4477 38 43V52C38 52.5523 37.5523 53 37 53C36.4477 53 36 52.5523 36 52V44H28C27.4477 44 27 43.5523 27 43C27 42.4477 27.4477 42 28 42H37ZM20 60L19.2929 59.2929L36.2929 42.2929L37 43L37.7071 43.7071L20.7071 60.7071L20 60Z" fill="#0B4159"/>
<path d="M59.2929 19.2929C59.6834 18.9024 60.3166 18.9024 60.7071 19.2929C61.0976 19.6834 61.0976 20.3166 60.7071 20.7071L60 20L59.2929 19.2929ZM43 38C42.4477 38 42 37.5523 42 37V28C42 27.4477 42.4477 27 43 27C43.5523 27 44 27.4477 44 28V36H52C52.5523 36 53 36.4477 53 37C53 37.5523 52.5523 38 52 38H43ZM60 20L60.7071 20.7071L43.7071 37.7071L43 37L42.2929 36.2929L59.2929 19.2929L60 20Z" fill="#0B4159"/>
<path d="M59.2929 60.7071C59.6834 61.0976 60.3166 61.0976 60.7071 60.7071C61.0976 60.3166 61.0976 59.6834 60.7071 59.2929L60 60L59.2929 60.7071ZM43 42C42.4477 42 42 42.4477 42 43V52C42 52.5523 42.4477 53 43 53C43.5523 53 44 52.5523 44 52V44H52C52.5523 44 53 43.5523 53 43C53 42.4477 52.5523 42 52 42H43ZM60 60L60.7071 59.2929L43.7071 42.2929L43 43L42.2929 43.7071L59.2929 60.7071L60 60Z" fill="#0B4159"/>
</svg>
