<svg width="80" height="80" viewBox="0 0 80 80" fill="none" xmlns="http://www.w3.org/2000/svg">
<ellipse cx="36.5" cy="51" rx="25.5" ry="6.5" fill="#8DD0A4"/>
<ellipse cx="53.5" cy="38" rx="14.5" ry="3.5" transform="rotate(180 53.5 38)" fill="#8DD0A4"/>
<ellipse cx="48.5" cy="56.5" rx="19.5" ry="5" fill="#8DD0A4"/>
<ellipse cx="46" cy="35" rx="10" ry="2.5" transform="rotate(180 46 35)" fill="#8DD0A4"/>
<path d="M32 34.5C34.8298 35.3909 39 39.7182 39 42.5182C35.4255 42.9 33.8536 45.4499 34.8298 48.5" stroke="#0B4159" stroke-width="2" stroke-linecap="round"/>
<path d="M18.5 22.5H27V34.5H13" stroke="#0B4159" stroke-width="2" stroke-linecap="round"/>
<path d="M27 21.5C27 20.9477 27.4477 20.5 28 20.5H31C31.5523 20.5 32 20.9477 32 21.5V35.5C32 36.0523 31.5523 36.5 31 36.5H28C27.4477 36.5 27 36.0523 27 35.5V21.5Z" stroke="#0B4159" stroke-width="2" stroke-linecap="round"/>
<path d="M32 24.5C41.6905 27.1323 49.8095 33.9452 54 48.5" stroke="#0B4159" stroke-width="2" stroke-linecap="round"/>
<path d="M42 37.5C43.9375 39.5602 45.25 42.0542 46 46.5" stroke="#0B4159" stroke-width="2" stroke-linecap="round"/>
</svg>
