<svg width="80" height="80" viewBox="0 0 80 80" fill="none" xmlns="http://www.w3.org/2000/svg">
<path d="M43.5232 19.5189C38.2773 23.9914 36.041 26.924 32.995 32.9365" stroke="#8DD0A4" stroke-width="4.55696" stroke-linecap="round"/>
<path d="M48.9347 30.0356C43.0748 33.669 40.4213 36.2328 36.5011 41.7213" stroke="#8DD0A4" stroke-width="4.55696" stroke-linecap="round"/>
<path d="M24.6275 28.746C25.0634 35.597 26.0737 39.1274 29.0714 45.1356" stroke="#8DD0A4" stroke-width="4.55696" stroke-linecap="round"/>
<path d="M55.8899 38.3284C58.3012 31.8851 58.8283 28.2445 58.5612 21.5275" stroke="#8DD0A4" stroke-width="4.55696" stroke-linecap="round"/>
<path d="M34.5862 52.3413C40.8012 49.3562 43.7147 47.0908 48.2026 42.0523" stroke="#8DD0A4" stroke-width="4.55696" stroke-linecap="round"/>
<rect x="33" y="44" width="7" height="14" rx="1" stroke="#0B4159" stroke-width="2" stroke-linecap="round"/>
<rect x="53" y="49" width="7" height="9" rx="1" stroke="#0B4159" stroke-width="2" stroke-linecap="round"/>
<rect x="23" y="54" width="7" height="4" rx="1" stroke="#0B4159" stroke-width="2" stroke-linecap="round"/>
<rect x="43" y="32" width="7" height="26" rx="1" stroke="#0B4159" stroke-width="2" stroke-linecap="round"/>
<path d="M61.75 61H18.75C18.1977 61 17.75 60.5523 17.75 60V37" stroke="#0B4159" stroke-width="2" stroke-linecap="round"/>
</svg>
