<svg width="80" height="80" viewBox="0 0 80 80" fill="none" xmlns="http://www.w3.org/2000/svg">
<path fill-rule="evenodd" clip-rule="evenodd" d="M57.998 19.4707C58.7637 19.0231 64.0101 22.2995 64.7637 26.499C64.882 26.8502 64.9473 27.226 64.9473 27.6171C64.9473 28.5968 64.5442 29.4819 63.8955 30.1171H63.9473C66.1564 30.1171 67.9473 31.908 67.9473 34.1171C67.9473 35.3122 67.4226 36.3842 66.5918 37.1171H68.4473C70.3803 37.1171 71.9473 38.6842 71.9473 40.6171C71.9472 42.5501 70.3802 44.1171 68.4473 44.1171H45.4473C43.5143 44.1171 41.9473 42.5501 41.9473 40.6171C41.9473 38.6842 43.5143 37.1171 45.4473 37.1171H47.3027C46.4719 36.3842 45.9473 35.3122 45.9473 34.1171C45.9473 31.908 47.7381 30.1171 49.9473 30.1171H50.999C50.3504 29.4819 49.9473 28.5968 49.9473 27.6171C49.9473 25.6842 51.5143 24.1171 53.4473 24.1171H57.6992C61.4706 23.9117 57.2344 19.9179 57.998 19.4707Z" fill="#8DD0A4"/>
<path d="M45 59.4765H10.0524C8.3955 59.4765 7.00096 58.1192 7.30466 56.4905C8.49216 50.1218 13.8362 48.3633 22.5897 45.6039C32.5779 42.4553 33.4658 38.2592 33.4658 31.1764C33.4658 28.1213 32.7999 19.5234 22.5897 19.5234C12.3794 19.5234 11.1591 27.9779 11.1591 31.1764C11.1591 34.0231 10.5434 40.1539 15.4934 43.033M41.5 52.5C40.5859 52.5 39.2541 53.7533 38.2682 55.878C38.0961 56.2489 37.7196 56.5236 37.3377 56.3776C34.888 55.441 34.0304 49.4217 28.5 48.5" stroke="#0B4159" stroke-width="2" stroke-linecap="round"/>
<path d="M48.942 48.6487C52.2015 46.7528 51.796 42.7158 51.796 40.8413C51.796 38.7351 50.9925 33.168 44.2692 33.168C37.5459 33.168 37.1074 38.8296 37.1074 40.8413C37.1074 45.5052 37.6921 48.2683 44.2692 50.3416C49.55 52.0063 52.9464 53.1178 54.0801 56.5174C54.6042 58.0892 53.1571 59.4765 51.5003 59.4765H41.4478" stroke="#0B4159" stroke-width="2" stroke-linecap="round"/>
</svg>
