<svg width="80" height="80" viewBox="0 0 80 80" fill="none" xmlns="http://www.w3.org/2000/svg">
<path d="M15 53H25C26.6569 53 28.1216 51.5989 27.5228 50.054C26.7181 47.978 25.0291 47.2476 23.4981 46.6734C22.2913 46.2775 21.1466 45.949 20.0992 45.6008C20.121 45.5939 20.1428 45.587 20.1647 45.5801C25.4135 43.9251 25.88 41.8478 25.88 38.125C25.88 36.5192 25.5301 32 20.1647 32C14.7993 32 14.1581 36.4438 14.1581 38.125C14.1581 43.0385 16.5804 44.4309 20.0992 45.6008C16.2159 46.8263 13.6204 47.7544 12.5515 50.0743C11.8581 51.5791 13.3431 53 15 53Z" fill="#8DD0A4"/>
<path d="M24 56H41C42.6569 56 44.0656 54.6342 43.6907 53.0203C42.7788 49.0949 40.0094 47.8867 37.5286 46.9619C35.7937 46.3965 34.1483 45.9272 32.6425 45.4297C32.6739 45.4198 32.7053 45.41 32.7368 45.4001C40.2819 43.0359 40.9526 40.0684 40.9526 34.75C40.9526 32.456 40.4496 26 32.7368 26C25.024 26 24.1022 32.3483 24.1022 34.75C24.1022 41.7692 27.5843 43.7584 32.6425 45.4297C26.4275 47.379 22.5072 48.8015 21.3553 53.0277C20.9196 54.6262 22.3431 56 24 56Z" fill="#8DD0A4"/>
<path d="M41.4411 43.5096C36.4911 40.6305 37.1069 34.4996 37.1069 31.653C37.1069 28.4545 38.3272 20 48.5374 20C58.7476 20 59.4135 28.5979 59.4135 31.653C59.4135 38.7358 58.5257 42.9319 48.5374 46.0805C39.7839 48.8398 34.4399 50.5984 33.2524 56.967C32.9487 58.5958 34.3433 59.9531 36.0001 59.9531H61.4478C62.5523 59.9531 63.4669 59.0499 63.3247 57.9545C62.4507 51.2237 57.1107 49.8502 53.4478 48.4766" stroke="#0B4159" stroke-width="2" stroke-linecap="round"/>
</svg>
