<svg width="80" height="80" viewBox="0 0 80 80" fill="none" xmlns="http://www.w3.org/2000/svg">
<path d="M32.5222 26.3342C32.4728 26.8685 37.0632 28.7663 38.5005 29.1949C38.6024 29.2253 38.6988 29.2676 38.788 29.3254L40.9716 30.7412C41.028 30.7778 41.0978 30.7875 41.1621 30.7676L41.8052 30.5692C42.7237 30.2856 43.7189 30.3976 44.5515 30.8783C46.1936 31.8264 46.7646 33.9207 45.8311 35.5711L37.9621 49.4822C37.1225 50.9666 35.2117 51.4465 33.7703 50.535L32.6653 49.8363C31.868 49.3321 31.4859 48.3721 31.7186 47.4579C31.9697 46.4718 31.4862 45.4788 30.5932 44.9909C30.087 44.7143 29.5696 44.3853 29.0322 43.9263C27.3343 42.4765 23.5612 43.6364 22.335 43.5397C21.7384 43.4927 21.2065 43.0165 20.3541 42.8631C19.4545 42.7012 18.2407 42.8631 17.9016 42.8631C17.2414 42.8631 13.8456 42.7664 13.091 42.4765C12.3364 42.1865 10.7328 38.8035 10.7328 37.6436C10.7328 37.0553 14.5912 35.0024 17.6187 31.9408C20.5596 28.9667 22.6685 24.9773 22.9009 24.6915C23.3726 24.1116 25.8251 24.5949 26.4853 23.9183C27.2309 23.1543 26.9534 21.6352 26.4075 20.3282C26.0914 19.5712 26.6049 18.7668 27.3253 19.1592C29.9362 20.5813 32.7039 24.369 32.5222 26.3342Z" fill="#8DD0A4"/>
<path d="M41.4808 58.8281L40.4991 59.3949C39.5426 59.9472 38.3194 59.6194 37.7671 58.6628L28.1582 42.0197C27.3899 40.689 27.8458 38.9875 29.1765 38.2192C30.5072 37.4509 32.2087 37.9069 32.977 39.2376L42.2669 55.3281C43.6841 57.8281 45.7061 54.035 47.6216 52.3993C49.5371 50.7635 53.7938 52.0721 55.1773 51.9631C55.8503 51.91 56.4504 51.3728 57.412 51.1997C58.427 51.0171 59.7964 51.1997 60.1789 51.1997C60.9238 51.1997 64.7549 51.0907 65.6062 50.7635C66.4576 50.4364 68.2667 46.6197 68.2667 45.3111C68.2667 44.6474 63.9137 42.3314 60.4982 38.8773C57.1802 35.5219 54.8009 31.0212 54.5388 30.6988C54.0067 30.0445 51.2398 30.5897 50.4949 29.8264C49.609 28.9186 50.0034 27.0659 50.6834 25.543C51.0179 24.7939 50.5059 23.9734 49.772 24.3399C46.7629 25.8425 43.4739 30.2784 43.6841 32.5519C43.742 33.1782 38.1505 35.4646 36.7671 35.8281C36.9338 38.6615 38.3671 44.3281 40.7671 44.3281C43.7671 44.3281 43.7671 43.8281 44.7671 43.3281C45.5671 42.9281 46.2671 39.3281 45.2671 36.8281" stroke="#0B4159" stroke-width="2" stroke-linecap="round"/>
</svg>
