<svg width="80" height="80" viewBox="0 0 80 80" fill="none" xmlns="http://www.w3.org/2000/svg">
<path fill-rule="evenodd" clip-rule="evenodd" d="M52.5151 12.5566C53.2808 12.109 58.5272 15.3854 59.2808 19.5849C59.3991 19.9361 59.4644 20.312 59.4644 20.7031C59.4643 21.6827 59.0612 22.5678 58.4126 23.2031H58.4644C60.6735 23.2031 62.4644 24.9939 62.4644 27.2031C62.4643 28.3981 61.9397 29.4701 61.1089 30.2031H62.9644C64.8974 30.2031 66.4644 31.7701 66.4644 33.7031C66.4643 35.6361 64.8973 37.2031 62.9644 37.2031H39.9644C38.0314 37.2031 36.4644 35.6361 36.4644 33.7031C36.4644 31.7701 38.0314 30.2031 39.9644 30.2031H41.8198C40.989 29.4701 40.4644 28.3981 40.4644 27.2031C40.4644 24.9939 42.2552 23.2031 44.4644 23.2031H45.5161C44.8675 22.5678 44.4644 21.6827 44.4644 20.7031C44.4644 18.7701 46.0314 17.2031 47.9644 17.2031H52.2163C55.9877 16.9977 51.7515 13.0038 52.5151 12.5566Z" fill="#8DD0A4"/>
<path d="M34.2506 52.5156L35.2323 53.0824C36.1889 53.6347 37.4121 53.3069 37.9644 52.3503L47.5733 35.7072C48.3415 34.3765 47.8856 32.675 46.5549 31.9067C45.2242 31.1384 43.5227 31.5944 42.7544 32.9251L33.4645 49.0156C32.0473 51.5156 30.0254 47.7225 28.1099 46.0868C26.1943 44.451 21.9376 45.7596 20.5542 45.6506C19.8811 45.5975 19.2811 45.0603 18.3194 44.8872C17.3044 44.7046 15.935 44.8872 15.5525 44.8872C14.8076 44.8872 10.9766 44.7782 10.1252 44.451C9.27389 44.1239 7.46478 40.3072 7.46478 38.9986C7.46478 38.3349 11.8178 36.0189 15.2333 32.5648C18.5512 29.2094 20.9305 24.7087 21.1927 24.3863C21.7248 23.732 24.4916 24.2772 25.2366 23.5139C26.1225 22.6061 25.728 20.7534 25.048 19.2305C24.7136 18.4814 25.2255 17.6609 25.9594 18.0274C28.9685 19.53 32.2575 23.9659 32.0473 26.2394C31.9894 26.8657 37.5809 29.1521 38.9644 29.5156C38.7977 32.349 37.3644 38.0156 34.9644 38.0156C31.9644 38.0156 31.9644 37.5156 30.9644 37.0156C30.1644 36.6156 29.4644 33.0156 30.4644 30.5156" stroke="#0B4159" stroke-width="2" stroke-linecap="round"/>
<path d="M55.4642 62.5163L57.9642 61.5163M55.4642 62.5163L57.9642 63.5156M55.4642 62.5163L56.4642 65.0156M55.4642 62.5163C55.2784 61.868 55.3126 61.1763 55.5615 60.5495L56.4263 58.3707C56.7338 57.5961 56.4171 56.7142 55.6882 56.3103C53.4924 55.0939 51.4853 53.9602 50.9642 53.5156C49.8239 52.5428 47.9268 47.1109 46.8201 45.4337C45.7133 43.7564 47.4238 43.6559 48.7317 43.3875C49.7781 43.1728 55.9642 46.0156 57.4642 46.5156L52.9642 48.5156C53.4472 49.7735 54.4642 51.0156 56.4642 52.0156C58.4642 53.0156 61.1164 52.0156 61.4642 50.5156C61.7425 49.3156 61.3668 47.5935 60.4642 47.0156L62.6164 44.6286C62.7631 43.7534 62.9351 41.5643 63.5555 40.5147C64.2587 39.3249 65.4838 38.7095 66.9092 38.9376C67.8589 39.0896 67.9666 39.7362 68.9642 40.5147C69.9618 41.2932 71.5354 42.9614 71.5354 42.9614L67.3788 44.1254L68.4079 46.4056C69.4064 48.618 69.1138 51.1995 67.6455 53.1324L64.1125 57.7831C63.7616 58.245 63.2148 58.5163 62.6346 58.5163C61.6887 58.5163 60.8942 59.2277 60.7899 60.1678L60.5016 62.7687C60.4773 62.9878 60.522 63.209 60.6295 63.4014L60.9731 64.0163M60.9731 64.0163L63.7966 62.5163M60.9731 64.0163H60.9642L65.3913 65.0156M60.9731 64.0163L62.6164 66.4848" stroke="#0B4159" stroke-width="2" stroke-linecap="round" stroke-linejoin="round"/>
</svg>
