<svg width="80" height="80" viewBox="0 0 80 80" fill="none" xmlns="http://www.w3.org/2000/svg">
<path fill-rule="evenodd" clip-rule="evenodd" d="M36.2578 18.325C37.1422 17.808 43.1664 21.5591 44.1152 26.3934C44.2644 26.8127 44.3467 27.2638 44.3467 27.7342V27.8817C44.3467 28.9887 43.8966 29.9905 43.1699 30.7147H43.8379C46.047 30.7147 47.8379 32.5056 47.8379 34.7147V36.0262C47.8379 37.1351 47.3871 38.1386 46.6582 38.8631H48.4941C50.7032 38.8633 52.4941 40.6541 52.4941 42.8631V43.0106C52.4941 45.2197 50.7032 47.0105 48.4941 47.0106H21.5762C19.367 47.0106 17.5762 45.2197 17.5762 43.0106V42.8631C17.5762 40.654 19.367 38.8631 21.5762 38.8631H23.4121C22.6832 38.1386 22.2325 37.1351 22.2324 36.0262V34.7147C22.2324 32.5056 24.0233 30.7147 26.2324 30.7147H28.0645C27.3377 29.9905 26.8877 28.9887 26.8877 27.8817V27.7342C26.8877 25.5251 28.6786 23.7342 30.8877 23.7342H35.8662C40.3323 23.5238 35.3671 18.848 36.2578 18.325Z" fill="#8DD0A4"/>
<path d="M45.1898 31.7777C48.9417 31.7777 52.3138 33.4038 54.6398 35.9896M57.8966 44.4845C57.8966 48.0995 56.3871 51.3618 53.964 53.6757M45.1898 57.1914C41.7869 57.1914 38.6964 55.8538 36.4155 53.6757M32.4829 44.4845C32.4829 40.8696 33.9924 37.6073 36.4155 35.2934" stroke="#0B4159" stroke-width="2" stroke-linecap="round"/>
<path d="M46.3694 28.5974L42.8418 32.125L46.3694 35.6526" stroke="#0B4159" stroke-width="2" stroke-linecap="round"/>
<path d="M28.9553 42.9998L32.4829 46.5273L36.0105 42.9998" stroke="#0B4159" stroke-width="2" stroke-linecap="round"/>
<path d="M43.1604 60.719L46.688 57.1914L43.1604 53.6638" stroke="#0B4159" stroke-width="2" stroke-linecap="round"/>
<path d="M61.4241 46.0432L57.8965 42.5156L54.3689 46.0432" stroke="#0B4159" stroke-width="2" stroke-linecap="round"/>
</svg>
