<svg width="80" height="80" viewBox="0 0 80 80" fill="none" xmlns="http://www.w3.org/2000/svg">
<path fill-rule="evenodd" clip-rule="evenodd" d="M48.5533 17.0049C48.7965 16.4025 49.4822 16.1111 50.0847 16.3541C50.8362 16.6575 51.4387 17.0891 51.8687 17.6607C52.2984 18.2322 52.5004 18.8702 52.572 19.4932C52.7064 20.6652 52.3862 21.9598 52.1472 22.9736C52.0374 23.4395 51.9418 23.859 51.8719 24.2379C52.2914 24.3703 52.7065 24.5392 53.1102 24.7494C53.5406 24.9735 53.9404 25.2352 54.3087 25.5244C54.3809 25.1988 54.4514 24.8403 54.5243 24.4479C54.7145 23.4236 54.9439 22.1094 55.5398 21.0909C55.8567 20.5497 56.2977 20.0479 56.9215 19.6982C57.5458 19.3484 58.2716 19.1968 59.082 19.2224C59.731 19.2435 60.2407 19.7865 60.2203 20.4355C60.1992 21.0843 59.656 21.594 59.0071 21.5738C58.5402 21.559 58.2556 21.6487 58.0726 21.751C57.8896 21.8537 57.7249 22.0159 57.5711 22.2785C57.2254 22.8691 57.051 23.7295 56.8378 24.8774C56.6853 25.6983 56.5068 26.7051 56.1356 27.5966C56.4269 28.083 56.6625 28.5996 56.8393 29.1352C57.3803 28.956 57.9065 28.8398 58.3213 28.7388C58.7745 28.6284 59.1278 28.5347 59.4104 28.4198C59.6914 28.3054 59.8023 28.2084 59.8444 28.1561C59.8627 28.1334 59.9149 28.0696 59.9069 27.8486C59.8972 27.5917 59.8047 27.1623 59.5044 26.4949C59.2379 25.9025 59.5013 25.2063 60.0934 24.9394C60.6857 24.6729 61.3829 24.9362 61.6498 25.5283C62.3577 27.1009 62.5553 28.5404 61.6784 29.6312C61.2843 30.1212 60.763 30.4104 60.2979 30.5997C59.8338 30.7885 59.3227 30.9181 58.8791 31.0261C58.2022 31.191 57.6588 31.3222 57.2256 31.4998C57.231 32.5382 57.0245 33.5904 56.5855 34.5929C56.6257 34.602 56.6677 34.6133 56.7117 34.6203C57.3872 34.7286 58.2514 34.58 59.3981 34.3633C60.4217 34.1699 61.7298 33.9082 62.8947 34.095C63.5138 34.1945 64.142 34.4245 64.6937 34.8794C65.2455 35.3347 65.6496 35.9565 65.919 36.721C66.1341 37.3334 65.8129 38.0058 65.2007 38.2218C64.5881 38.4376 63.9159 38.115 63.6997 37.5026C63.5444 37.0619 63.357 36.8284 63.1953 36.6949C63.0335 36.5617 62.8228 36.467 62.5227 36.4187C61.8472 36.3103 60.9824 36.4592 59.8354 36.6759C58.8117 36.8693 57.5036 37.131 56.3388 36.9442C56.0542 36.8985 55.7677 36.8239 55.488 36.7138C55.1019 37.4284 54.7196 38.1153 54.3394 38.7786C54.2484 39.1795 54.272 39.3764 54.2908 39.4469C54.3004 39.4827 54.3029 39.4901 54.3423 39.5159C54.4165 39.5643 54.5724 39.6305 54.8683 39.687C55.1612 39.7428 55.496 39.7735 55.9039 39.8098C56.286 39.8439 56.7431 39.8831 57.1728 39.9651C57.599 40.0466 58.1006 40.1872 58.5466 40.4794C59.0266 40.7942 59.41 41.2644 59.5823 41.9061C59.7438 42.5092 59.6945 43.1706 59.5209 43.8568C59.3612 44.486 58.7215 44.8669 58.092 44.7081C57.4623 44.5488 57.0809 43.9091 57.2397 43.2794C57.3571 42.8153 57.3287 42.5922 57.3085 42.516C57.2988 42.48 57.296 42.4726 57.257 42.4471C57.1831 42.3987 57.0277 42.3333 56.7321 42.2767C56.4391 42.2208 56.1037 42.1904 55.6956 42.154C55.3136 42.12 54.8563 42.0807 54.4267 41.9987C54.0005 41.9174 53.4989 41.7765 53.0528 41.4844C52.972 41.4315 52.8948 41.3717 52.8201 41.3099C52.3007 42.1335 51.7758 42.9225 51.2374 43.686C51.3202 43.7402 51.4021 43.796 51.48 43.8548C52.4216 44.5653 53.1393 45.6899 53.709 46.5619C54.3471 47.5387 54.8389 48.2649 55.3849 48.6769C55.6279 48.8601 55.8427 48.9478 56.051 48.9721C56.2593 48.9962 56.5567 48.9689 56.982 48.7757C57.5734 48.5069 58.2714 48.768 58.5404 49.3592C58.8088 49.9504 58.5477 50.6485 57.9569 50.9176C57.2189 51.2531 56.4896 51.3917 55.7789 51.3092C55.0691 51.2265 54.4684 50.9341 53.9679 50.5568C53.0261 49.8464 52.3087 48.7219 51.7389 47.8497C51.1007 46.8728 50.6088 46.146 50.0628 45.7337C49.9826 45.6733 49.9035 45.6248 49.8287 45.5843C49.0314 46.6066 48.1938 47.5943 47.2936 48.5739C47.2984 48.5798 47.3035 48.5883 47.3117 48.5964C47.3746 48.6587 47.5137 48.7546 47.792 48.8693C48.0678 48.9829 48.3906 49.0804 48.783 49.198C49.1505 49.3081 49.5899 49.4387 49.9942 49.6053C50.3954 49.7707 50.8589 50.0091 51.2372 50.385C51.6441 50.7898 51.9245 51.3274 51.9642 51.9907C52.0014 52.6138 51.8214 53.2508 51.5137 53.8881C51.2311 54.4728 50.5264 54.7182 49.9415 54.4361C49.3566 54.1534 49.1122 53.4497 49.3946 52.8647C49.6028 52.4334 49.6193 52.2096 49.6148 52.131C49.6125 52.0937 49.6108 52.0864 49.5776 52.0534C49.5149 51.9912 49.3758 51.8962 49.0975 51.7815C48.8218 51.6679 48.4997 51.5702 48.1074 51.4526C47.7402 51.3426 47.3006 51.2118 46.8963 51.0454C46.4982 50.8813 46.0386 50.6449 45.6618 50.274C44.6759 51.2584 43.6136 52.2493 42.4523 53.2738C42.9865 53.6354 43.7546 53.9091 44.7505 54.2453C45.7375 54.5785 47.0055 54.992 47.9291 55.7257C48.4199 56.1159 48.8545 56.6242 49.1124 57.291C49.3702 57.9583 49.4187 58.6982 49.2787 59.4966C49.1664 60.136 48.5563 60.5642 47.9168 60.4528C47.277 60.3406 46.849 59.7307 46.9607 59.0909C47.0414 58.6305 46.9928 58.3353 46.9174 58.1396C46.8417 57.944 46.7044 57.7577 46.4665 57.5683C45.9308 57.1427 45.1036 56.8487 43.9979 56.4754C43.0109 56.1422 41.7421 55.7289 40.8184 54.9951C40.7559 54.9455 40.6941 54.893 40.6338 54.8395C40.4596 54.9859 40.2841 55.1342 40.1057 55.2824C39.8195 55.5203 39.5199 55.7326 39.2117 55.9219C39.1232 56.0507 39.088 56.1352 39.0763 56.1783C39.0665 56.2142 39.066 56.2216 39.0871 56.2637C39.1268 56.3428 39.2278 56.4787 39.4551 56.6764C39.6803 56.8721 39.9544 57.0675 40.2888 57.3042C40.602 57.5258 40.9771 57.7897 41.3071 58.0767C41.6345 58.3615 41.9979 58.7352 42.2364 59.2122C42.4928 59.7257 42.5869 60.3249 42.4128 60.9661C42.2491 61.5685 41.8752 62.1145 41.3802 62.6202C40.9259 63.0842 40.1806 63.0918 39.7162 62.6381C39.252 62.1835 39.244 61.4384 39.6984 60.9741C40.0337 60.6315 40.1215 60.4249 40.1422 60.349C40.152 60.313 40.1522 60.3053 40.1314 60.2636C40.0918 60.1846 39.9906 60.0494 39.7635 59.8518C39.5386 59.6562 39.2642 59.4615 38.93 59.225C38.617 59.0035 38.2417 58.7385 37.9116 58.4515C37.5843 58.167 37.222 57.7934 36.9834 57.3169C36.9137 57.1775 36.8561 57.0307 36.8124 56.8797C36.3697 56.9737 35.921 57.0277 35.4721 57.0424C35.4939 58.0439 35.2642 59.0902 35.0848 59.9399C34.8437 61.0821 34.6768 61.9436 34.7709 62.6214C34.8128 62.9226 34.9031 63.1353 35.033 63.3C35.163 63.4644 35.3919 63.6568 35.8292 63.8214C36.4369 64.0507 36.7447 64.7294 36.5159 65.3373C36.2867 65.9448 35.6076 66.2514 34.9998 66.023C34.2414 65.7374 33.6292 65.32 33.1858 64.7587C32.7427 64.1974 32.5264 63.565 32.4401 62.9439C32.2781 61.7752 32.5675 60.4732 32.7827 59.4538C33.0237 58.312 33.1897 57.4512 33.0958 56.7735C33.0946 56.7646 33.0913 56.7555 33.0899 56.7468C32.5595 56.5937 32.0435 56.3817 31.5522 56.1137C31.3789 56.1626 31.1917 56.1732 31.0031 56.1355C30.5341 56.0415 30.3131 56.0808 30.2378 56.1049C30.202 56.1164 30.1956 56.1198 30.1716 56.1607C30.127 56.2372 30.0691 56.3947 30.0274 56.6928C29.9862 56.9882 29.9722 57.3244 29.9562 57.7337C29.9412 58.117 29.9241 58.5757 29.8636 59.0089C29.8035 59.4387 29.6879 59.9466 29.4183 60.4068C29.1278 60.9021 28.677 61.309 28.0443 61.5131C27.4503 61.7045 26.7882 61.6869 26.0945 61.5479C25.4578 61.42 25.0448 60.8007 25.172 60.1639C25.2997 59.527 25.9191 59.1142 26.556 59.2414C27.0259 59.3356 27.2477 59.2969 27.3225 59.2729C27.358 59.2614 27.3647 59.2577 27.3886 59.217C27.4333 59.1408 27.4909 58.9826 27.5326 58.684C27.5739 58.3885 27.5888 58.0524 27.6048 57.6429C27.6198 57.2595 27.636 56.8012 27.6964 56.3679C27.7565 55.9379 27.872 55.4303 28.1418 54.97C28.3691 54.5823 28.695 54.2515 29.1288 54.0274C28.7231 53.4942 28.3958 52.9237 28.1496 52.3301C27.7454 52.4761 27.3207 52.5867 26.9437 52.6785C25.9587 52.9185 25.2554 53.0834 24.7647 53.4308C24.5559 53.5789 24.4106 53.7472 24.3152 53.9656C24.2162 54.1923 24.1389 54.5462 24.1809 55.1065C24.2292 55.7539 23.7432 56.3189 23.0958 56.3681C22.4482 56.4165 21.8843 55.9302 21.8352 55.2828C21.7714 54.4334 21.8728 53.6781 22.1592 53.0225C22.4493 52.3588 22.8961 51.8696 23.4036 51.51C24.3459 50.8425 25.5779 50.588 26.3869 50.391C26.8402 50.2806 27.1934 50.187 27.476 50.072C27.5204 50.054 27.5598 50.0342 27.596 50.0171C27.5509 49.4525 27.5652 48.8845 27.6445 48.325C27.6205 48.2682 27.5963 48.208 27.569 48.1473C27.4687 47.9244 27.4432 47.6861 27.4824 47.4622C27.1268 47.5144 26.7361 47.5869 26.3059 47.6682C25.2824 47.8616 23.9741 48.1232 22.8093 47.9365C22.1904 47.8371 21.5629 47.6064 21.0113 47.1519C20.4594 46.6967 20.0545 46.0749 19.785 45.3105C19.5694 44.6977 19.8915 44.0254 20.5042 43.8095C21.1169 43.5941 21.7894 43.9161 22.0052 44.5287C22.1607 44.9695 22.346 45.2034 22.5077 45.3368C22.6697 45.4701 22.8816 45.5643 23.1822 45.6126C23.8577 45.7208 24.7219 45.5723 25.8686 45.3556C26.7683 45.1856 27.8875 44.9629 28.9361 45.0383C29.3215 44.4841 29.7857 43.9705 30.3301 43.5181C30.6829 43.225 31.0226 42.9373 31.3519 42.6565C31.2712 42.6303 31.1671 42.6026 31.0365 42.5776C30.7437 42.5217 30.4087 42.4911 30.001 42.4547C29.6189 42.4207 29.1617 42.3814 28.732 42.2994C28.3059 42.2181 27.8043 42.0772 27.3582 41.7851C26.8779 41.4704 26.4948 40.9995 26.3224 40.3575C26.1607 39.7545 26.2105 39.0939 26.384 38.4077C26.5435 37.7781 27.1829 37.3964 27.8127 37.5555C28.4421 37.7151 28.8239 38.3546 28.665 38.9842C28.5475 39.4489 28.575 39.6718 28.5952 39.7478C28.6049 39.7836 28.6082 39.7907 28.6476 39.8165C28.7218 39.8649 28.8778 39.9312 29.1737 39.9877C29.4666 40.0435 29.8014 40.0742 30.2092 40.1105C30.5914 40.1446 31.0486 40.1847 31.4783 40.2668C31.9046 40.3482 32.4062 40.4889 32.8522 40.7811C32.9696 40.8581 33.0819 40.9445 33.186 41.0403C34.0954 40.2112 34.9129 39.4188 35.663 38.6244C35.5603 38.5813 35.4586 38.5359 35.3613 38.4853C34.3487 37.959 33.5006 36.9813 32.8473 36.2469C32.1044 35.4117 31.5541 34.8189 31.0062 34.5337C30.7694 34.4107 30.5767 34.372 30.397 34.3859C30.2134 34.4002 29.9416 34.4768 29.562 34.7474C29.0333 35.1244 28.2981 35.0013 27.9206 34.4731C27.5436 33.9442 27.6665 33.21 28.1951 32.8326C28.8421 32.3713 29.5151 32.0936 30.2146 32.0392C30.9179 31.9848 31.5485 32.1634 32.0919 32.4458C33.1043 32.9724 33.9525 33.9491 34.6057 34.6834C35.3486 35.5185 35.898 36.1126 36.446 36.3976C36.6829 36.5206 36.8764 36.5592 37.0562 36.5453C37.1957 36.5344 37.386 36.4858 37.6359 36.345C38.1635 35.678 38.6662 34.9901 39.1586 34.263C39.123 34.1055 39.1198 33.9377 39.154 33.7693C39.2493 33.3002 39.2104 33.0788 39.1866 33.0036C39.1754 32.9685 39.1716 32.9617 39.1319 32.9382C39.0557 32.8934 38.8974 32.8347 38.5995 32.7921C38.3043 32.75 37.9681 32.7349 37.559 32.7178C37.1759 32.7018 36.7172 32.6838 36.2842 32.6222C35.8547 32.561 35.347 32.4443 34.8877 32.1736C34.3932 31.8819 33.9873 31.4301 33.7849 30.7971C33.5949 30.2023 33.6139 29.5399 33.7549 28.8463C33.8844 28.2099 34.505 27.7983 35.1415 27.9273C35.7778 28.0571 36.1899 28.6785 36.0607 29.3149C35.9652 29.7851 36.0033 30.0062 36.0271 30.0808C36.0384 30.116 36.0416 30.1232 36.082 30.1471C36.1584 30.192 36.3172 30.2506 36.6154 30.2931C36.9107 30.3351 37.2466 30.3502 37.6559 30.3673C38.0392 30.3834 38.4976 30.4013 38.9307 30.463C39.3602 30.5242 39.8678 30.6407 40.3271 30.9115C40.5512 31.0438 40.756 31.2108 40.9326 31.4106C41.4023 30.5979 41.8802 29.7293 42.3786 28.7886C42.1339 28.5642 41.9329 28.3147 41.769 28.0837C41.5159 27.727 41.29 27.3269 41.1002 26.9935C40.8977 26.6376 40.7302 26.3457 40.5576 26.1025C40.3836 25.8574 40.2596 25.7431 40.1847 25.6956C40.1449 25.6706 40.1372 25.6712 40.1009 25.6773C40.0237 25.6903 39.8095 25.7569 39.4351 26.0573C38.9285 26.4637 38.1878 26.3818 37.781 25.8757C37.3745 25.3689 37.4551 24.6285 37.9617 24.2217C38.5138 23.7787 39.0939 23.4599 39.7097 23.3563C40.3652 23.2462 40.9524 23.3988 41.4383 23.7049C41.8893 23.9892 42.2252 24.387 42.4763 24.7408C42.7293 25.0975 42.9552 25.4968 43.1449 25.8301C43.3371 26.1679 43.4993 26.4475 43.6626 26.6829C44.3064 25.896 45.0892 25.2613 45.9552 24.7965C45.1441 24.2002 44.1583 23.4616 43.5445 22.5469C43.1952 22.0263 42.9369 21.4103 42.8935 20.6968C42.8503 19.9825 43.0293 19.2625 43.4052 18.5439C43.7066 17.9686 44.4173 17.7466 44.9929 18.0476C45.5679 18.3492 45.7914 19.0606 45.4903 19.6361C45.2737 20.0502 45.2289 20.3446 45.2415 20.5539C45.2543 20.7633 45.3297 20.9824 45.4992 21.2352C45.8805 21.8032 46.5784 22.3354 47.5186 23.0267C47.8857 23.2966 48.2986 23.5995 48.7028 23.9344C48.9811 23.9021 49.2622 23.8871 49.5439 23.8856C49.6344 23.3711 49.7532 22.8761 49.8573 22.4346C50.125 21.2985 50.3121 20.4402 50.2341 19.7604C50.1993 19.4585 50.1136 19.2436 49.9877 19.076C49.8617 18.9085 49.6374 18.7112 49.204 18.5363C48.6015 18.2932 48.3104 17.6074 48.5533 17.0049ZM51.5369 27.7742C49.461 26.6936 46.9015 27.4994 45.8204 29.575C41.8823 37.139 39.1809 40.5977 32.5107 46.1408C30.7106 47.6368 30.4638 50.309 31.9598 52.1092C33.4557 53.9089 36.1271 54.1558 37.9272 52.6603C45.5005 46.3667 48.9028 42.0106 53.3386 33.4905C54.4193 31.4147 53.6124 28.8554 51.5369 27.7742ZM44.7807 34.7507C45.2973 33.2962 46.8947 32.5357 48.3492 33.052C49.8038 33.5686 50.5647 35.1669 50.048 36.6215C49.5314 38.0761 47.9329 38.836 46.4784 38.3194C45.0241 37.8026 44.2641 36.2051 44.7807 34.7507Z" fill="#8DD0A4"/>
<path d="M24.0811 40L24.0811 45" stroke="#0B4159" stroke-width="2" stroke-linecap="round"/>
<path d="M38.0811 40L38.0811 45" stroke="#0B4159" stroke-width="2" stroke-linecap="round"/>
<path d="M24.0811 15V34" stroke="#0B4159" stroke-width="2" stroke-linecap="round"/>
<path d="M38.0811 15V34" stroke="#0B4159" stroke-width="2" stroke-linecap="round"/>
<path d="M17.0811 25L17.0811 45" stroke="#0B4159" stroke-width="2" stroke-linecap="round"/>
<path d="M17.0811 15V19" stroke="#0B4159" stroke-width="2" stroke-linecap="round"/>
<path d="M31.0811 29L31.0811 45" stroke="#0B4159" stroke-width="2" stroke-linecap="round"/>
<path d="M31.0811 15V23" stroke="#0B4159" stroke-width="2" stroke-linecap="round"/>
<rect x="28.0811" y="23" width="6" height="6" rx="1" stroke="#0B4159" stroke-width="2" stroke-linecap="round"/>
<rect x="21.0811" y="34" width="6" height="6" rx="1" stroke="#0B4159" stroke-width="2" stroke-linecap="round"/>
<rect x="35.0811" y="34" width="6" height="6" rx="1" stroke="#0B4159" stroke-width="2" stroke-linecap="round"/>
<rect x="14.0811" y="19" width="6" height="6" rx="1" stroke="#0B4159" stroke-width="2" stroke-linecap="round"/>
</svg>
