<svg width="80" height="80" viewBox="0 0 80 80" fill="none" xmlns="http://www.w3.org/2000/svg">
<path d="M31.7083 26.3107C31.6589 26.8451 36.2493 28.7429 37.6865 29.1715C37.7884 29.2019 37.8848 29.2441 37.974 29.302L40.1576 30.7178C40.2141 30.7544 40.2839 30.7641 40.3482 30.7442L40.9912 30.5457C41.9098 30.2622 42.905 30.3742 43.7375 30.8549C45.3796 31.8029 45.9507 33.8973 45.0171 35.5476L37.1481 49.4588C36.3085 50.9431 34.3977 51.423 32.9563 50.5116L31.8514 49.8128C31.0541 49.3087 30.6719 48.3486 30.9047 47.4345C31.1557 46.4484 30.6723 45.4553 29.7793 44.9674C29.273 44.6908 28.7556 44.3618 28.2182 43.9029C26.5203 42.453 22.7473 43.6129 21.521 43.5163C20.9244 43.4692 20.3926 42.993 19.5402 42.8397C18.6405 42.6778 17.4267 42.8397 17.0877 42.8397C16.4274 42.8397 13.0317 42.743 12.277 42.453C11.5224 42.1631 9.91888 38.7801 9.91888 37.6202C9.91888 37.0318 13.7773 34.979 16.8047 31.9174C19.7456 28.9432 21.8546 24.9539 22.087 24.6681C22.5586 24.0881 25.0111 24.5714 25.6714 23.8948C26.4169 23.1308 26.1394 21.6118 25.5935 20.3048C25.2774 19.5478 25.7909 18.7434 26.5114 19.1358C29.1223 20.5579 31.8899 24.3456 31.7083 26.3107Z" fill="#8DD0A4"/>
<path d="M55.2619 37.4496L57.3055 33.9102C57.6904 33.2435 58.6526 33.2435 59.0375 33.9102L60.8131 36.9855C60.9886 37.2896 61.081 37.6345 61.081 37.9855V57.7966C61.081 58.9012 60.1856 59.7966 59.081 59.7966H57.4079C56.3034 59.7966 55.4079 58.9012 55.4079 57.7966V55.64C55.4079 54.5355 54.5125 53.64 53.4079 53.64H36.1301C35.0256 53.64 34.1301 52.7446 34.1301 51.64V50.2825C34.1301 49.1779 35.0256 48.2825 36.1301 48.2825H53.4079C54.5125 48.2825 55.4079 47.3871 55.4079 46.2825V44.5776C55.4079 43.4731 54.5125 42.5776 53.4079 42.5776H36.1301C35.0256 42.5776 34.1301 41.6822 34.1301 40.5776V37.9855C34.1301 37.6345 34.0377 37.2896 33.8622 36.9855L32.0866 33.9102C31.7017 33.2435 30.7395 33.2435 30.3546 33.9102L28.579 36.9855C28.4034 37.2896 28.311 37.6345 28.311 37.9855L28.311 58.4172C28.311 59.5218 29.2065 60.4172 30.311 60.4172H32.1301C33.2347 60.4172 34.1301 59.5218 34.1301 58.4172V58.1757" stroke="#0B4159" stroke-width="2" stroke-linecap="round"/>
</svg>
