<svg width="80" height="80" viewBox="0 0 80 80" fill="none" xmlns="http://www.w3.org/2000/svg">
<g clip-path="url(#clip0_1061_5109)">
<path d="M48.9553 39.9539C53.9177 34.9915 53.9177 26.946 48.9553 21.9836C43.993 17.0213 35.9474 17.0213 30.9851 21.9836C26.0228 26.946 26.0228 34.9915 30.9851 39.9539C35.9474 44.9162 43.993 44.9162 48.9553 39.9539ZM48.9553 39.9539L59.0878 50.0863" stroke="#8DD0A4" stroke-width="5" stroke-linecap="round"/>
<path d="M31.5359 33C33.0755 30.3333 36.9245 30.3333 38.4641 33L52.3205 57C53.8601 59.6667 51.9356 63 48.8564 63H21.1436C18.0644 63 16.1399 59.6667 17.6795 57L31.5359 33Z" stroke="#0B4159" stroke-width="2"/>
<circle cx="35" cy="57" r="2" stroke="#0B4159" stroke-width="2"/>
<rect x="33" y="38" width="4" height="14" rx="2" stroke="#0B4159" stroke-width="2"/>
</g>
<defs>
<clipPath id="clip0_1061_5109">
<rect width="50" height="50" fill="white" transform="translate(15 15)"/>
</clipPath>
</defs>
</svg>
