<svg width="80" height="80" viewBox="0 0 80 80" fill="none" xmlns="http://www.w3.org/2000/svg">
<path d="M22.2921 17.0468C21.9015 16.6563 21.2684 16.6563 20.8779 17.0468C20.4873 17.4373 20.4873 18.0705 20.8779 18.461L21.585 17.7539L22.2921 17.0468ZM34.0107 31.1797C34.563 31.1797 35.0107 30.732 35.0107 30.1797V21.1797C35.0107 20.6274 34.563 20.1797 34.0107 20.1797C33.4585 20.1797 33.0107 20.6274 33.0107 21.1797V29.1797H25.0107C24.4585 29.1797 24.0107 29.6274 24.0107 30.1797C24.0107 30.732 24.4585 31.1797 25.0107 31.1797H34.0107ZM21.585 17.7539L20.8779 18.461L33.3036 30.8868L34.0107 30.1797L34.7178 29.4726L22.2921 17.0468L21.585 17.7539Z" fill="#0B4159"/>
<path d="M55 22.2422C43.413 22.2422 52.6825 61.2422 37.5304 61.2422L14 61.2422C42.6108 61.2422 38.5108 22.2422 44.8391 22.2422L55 22.2422Z" fill="#8DD0A4"/>
<path d="M61.6519 22.2422C54.6173 22.2422 60.9982 61.2411 53.3896 61.2411L42.0009 61.2422C53.1091 61.24 46.7616 22.2422 55.4831 22.2422L61.6519 22.2422Z" fill="#8DD0A4"/>
<path d="M22.2921 49.3126C21.9015 49.7031 21.2684 49.7031 20.8779 49.3126C20.4873 48.9221 20.4873 48.2889 20.8779 47.8984L21.585 48.6055L22.2921 49.3126ZM34.0107 35.1797C34.563 35.1797 35.0107 35.6274 35.0107 36.1797V45.1797C35.0107 45.732 34.563 46.1797 34.0107 46.1797C33.4585 46.1797 33.0107 45.732 33.0107 45.1797V37.1797H25.0107C24.4585 37.1797 24.0107 36.732 24.0107 36.1797C24.0107 35.6274 24.4585 35.1797 25.0107 35.1797H34.0107ZM21.585 48.6055L20.8779 47.8984L33.3036 35.4726L34.0107 36.1797L34.7178 36.8868L22.2921 49.3126L21.585 48.6055Z" fill="#0B4159"/>
<path d="M51.7294 17.2929C52.1199 16.9024 52.7531 16.9024 53.1436 17.2929C53.5342 17.6834 53.5342 18.3166 53.1436 18.7071L52.4365 18L51.7294 17.2929ZM40.0107 31.4258C39.4585 31.4258 39.0107 30.9781 39.0107 30.4258V21.4258C39.0107 20.8735 39.4585 20.4258 40.0107 20.4258C40.563 20.4258 41.0107 20.8735 41.0107 21.4258V29.4258H49.0107C49.563 29.4258 50.0107 29.8735 50.0107 30.4258C50.0107 30.9781 49.563 31.4258 49.0107 31.4258H40.0107ZM52.4365 18L53.1436 18.7071L40.7178 31.1329L40.0107 30.4258L39.3036 29.7187L51.7294 17.2929L52.4365 18Z" fill="#0B4159"/>
<path d="M51.7294 49.3126C52.1199 49.7031 52.7531 49.7031 53.1436 49.3126C53.5342 48.9221 53.5342 48.2889 53.1436 47.8984L52.4365 48.6055L51.7294 49.3126ZM40.0107 35.1797C39.4585 35.1797 39.0107 35.6274 39.0107 36.1797V45.1797C39.0107 45.732 39.4585 46.1797 40.0107 46.1797C40.563 46.1797 41.0107 45.732 41.0107 45.1797V37.1797H49.0107C49.563 37.1797 50.0107 36.732 50.0107 36.1797C50.0107 35.6274 49.563 35.1797 49.0107 35.1797H40.0107ZM52.4365 48.6055L53.1436 47.8984L40.7178 35.4726L40.0107 36.1797L39.3036 36.8868L51.7294 49.3126L52.4365 48.6055Z" fill="#0B4159"/>
</svg>
