<svg width="80" height="80" viewBox="0 0 80 80" fill="none" xmlns="http://www.w3.org/2000/svg">
<path fill-rule="evenodd" clip-rule="evenodd" d="M55.0508 28.041C55.8164 27.5934 61.0628 30.8698 61.8164 35.0693C61.9348 35.4205 62 35.7963 62 36.1875C62 37.1671 61.5969 38.0522 60.9482 38.6875H61C63.2091 38.6875 65 40.4783 65 42.6875C65 43.8825 64.4754 44.9545 63.6445 45.6875H65.5C67.433 45.6875 69 47.2545 69 49.1875C69 51.1204 67.433 52.6875 65.5 52.6875H42.5C40.567 52.6875 39 51.1204 39 49.1875C39 47.2545 40.567 45.6875 42.5 45.6875H44.3555C43.5246 44.9545 43 43.8825 43 42.6875C43 40.4783 44.7909 38.6875 47 38.6875H48.0518C47.4031 38.0522 47 37.1671 47 36.1875C47 34.2545 48.567 32.6875 50.5 32.6875H54.752C58.5233 32.4821 54.2871 28.4882 55.0508 28.041Z" fill="#8DD0A4"/>
<path d="M16.4565 40.7706H32.6817C33.5448 40.7706 34.2446 40.0709 34.2446 39.2077C34.2446 38.3446 33.5448 37.6448 32.6817 37.6448H12.2271C11.3639 37.6448 10.6642 38.3446 10.6642 39.2078C10.6643 40.071 11.3642 40.7706 12.2273 40.7706C13.0907 40.7706 13.7908 41.4706 13.7908 42.3339V47.1199C13.7908 48.8333 14.4665 50.4775 15.6713 51.6958C16.8937 52.9321 18.5601 53.6278 20.2987 53.6278H20.6004C22.206 53.6278 23.0147 55.5648 21.8858 56.7065L21.5184 57.078C21.2008 57.3992 21.0227 57.8326 21.0227 58.2843C21.0227 59.2319 21.7908 60 22.7383 60H39.8847C40.9893 60 41.8847 59.1046 41.8847 58V53.961C41.8847 50.7015 42.8217 47.5107 44.5842 44.7688L45.5526 43.2623C46.4082 41.9313 45.4525 40.1809 43.8702 40.1809H39.8831C38.7553 40.1809 38.0481 38.9628 38.6073 37.9834C38.734 37.7615 38.8006 37.5105 38.8006 37.255V23.9346C38.8006 23.2288 38.2284 22.6566 37.5226 22.6566C36.8168 22.6566 36.2446 22.0844 36.2446 21.3786V20.8283C36.2446 19.8186 37.0631 19 38.0729 19H45.9999C47.1045 19 47.9999 19.8954 47.9999 21V33.4711C47.9999 35.2143 47.5411 36.9267 46.6695 38.4363" stroke="#0B4159" stroke-width="2" stroke-linecap="round"/>
<path d="M25 54H29.1716C30.9826 54 32.7194 53.2806 34 52C35.2806 50.7194 36 48.9826 36 47.1716V43" stroke="#0B4159" stroke-width="2" stroke-linecap="round"/>
</svg>
