<svg width="80" height="80" viewBox="0 0 80 80" fill="none" xmlns="http://www.w3.org/2000/svg">
<path d="M42.1899 39.5761C42.1899 45.7037 37.2226 50.6711 31.095 50.6711C24.9674 50.6711 20 45.7037 20 39.5761C20 30.0007 31.095 19 31.095 19C31.095 19 42.1899 29.6214 42.1899 39.5761Z" fill="#8DD0A4"/>
<path d="M42.9896 30.1136C46.7415 30.1136 50.1136 31.7397 52.4396 34.3256M55.6964 42.8205C55.6964 46.4354 54.1869 49.6978 51.7638 52.0116M42.9896 55.5273C39.5867 55.5273 36.4962 54.1897 34.2153 52.0116M30.2827 42.8205C30.2827 39.2056 31.7922 35.9432 34.2153 33.6293" stroke="#0B4159" stroke-width="2" stroke-linecap="round"/>
<path d="M44.1692 26.9333L40.6416 30.4609L44.1692 33.9885" stroke="#0B4159" stroke-width="2" stroke-linecap="round"/>
<path d="M26.7551 41.3357L30.2827 44.8633L33.8103 41.3357" stroke="#0B4159" stroke-width="2" stroke-linecap="round"/>
<path d="M40.9602 59.0549L44.4878 55.5273L40.9602 51.9998" stroke="#0B4159" stroke-width="2" stroke-linecap="round"/>
<path d="M59.2239 44.3792L55.6963 40.8516L52.1687 44.3792" stroke="#0B4159" stroke-width="2" stroke-linecap="round"/>
</svg>
